<?xml version="1.0" encoding="UTF-8" standalone="no"?>
<!-- Created with Inkscape (http://www.inkscape.org/) -->
<svg viewBox="0 0 1000.1866 253.85871" version="1.1" id="svg7" width="1000.1866" height="253.85872" xmlns="http://www.w3.org/2000/svg" xmlns:svg="http://www.w3.org/2000/svg">
  <defs id="defs2"/>
  <path d="M 295.4168,64.470982 H 320.85804 V 85.313093 H 295.4168 Z" id="path880-2" style="fill:#ff4c96;stroke-width:0.979093"/>
  <path style="fill:#dc2876" d="M 7.6338286e-5,50.725861 0,203.13287 53.826292,203.13283 53.826313,50.725847 Z" id="path869-6-9"/>
  <path style="fill:#b00d5a" d="M 192.93503,131.04036 60.946662,207.24378 87.859815,253.85872 219.84816,177.65524 Z" id="path869-6-1"/>
  <path style="fill:#ff4c96" d="M 192.93503,122.81836 60.946662,46.61494 87.859815,0 219.84816,76.203479 Z" id="path869-6-0-7"/>
  <path d="M 295.4168,104.45107 H 320.85804 V 188.65347 H 295.4168 Z" id="path7842" style="fill:#ff4c96"/>
  <path d="M 340.12092,188.65347 V 64.470982 H 384.71301 C 400.67592,64.470982 412.9373,68.002513 421.49713,75.065574 430.05696,82.128633 434.33687,92.260071 434.33687,105.45989 434.33687,114.14398 432.37042,121.55441 428.43753,127.69117 424.62032,133.71214 419.01016,138.34365 411.60705,141.5857 404.20397,144.71198 395.18146,146.27512 384.53951,146.27512 H 366.49446 V 188.65347 Z M 366.49446,125.09472 H 383.15143 C 391.01722,125.09472 396.97439,123.53158 401.02295,120.40532 405.18718,117.16325 407.2693,112.12647 407.2693,105.29499 407.2693,98.463502 405.18718,93.42673 401.02295,90.184669 396.97439,86.942609 391.07505,85.321578 383.32492,85.321578 H 366.49446 Z" id="path7844" style="fill:#ff4c96"/>
  <path d="M 450.75012,64.470982 H 477.49712 V 165.38012 H 536.17735 V 188.65347 H 450.75012 Z" id="path7846" style="fill:#ff4c96"/>
  <path d="M 645.69666,188.65347 Q 641.188,174.93261 636.67931,161.73279 H 586.39044 Q 581.88178,175.10629 577.37312,188.65347 H 548.76047 Q 560.55235,156.0013 572.69104,124.91225 585.00315,93.823209 597.48867,64.470982 H 626.27472 Q 639.10705,95.386343 651.24577,126.64907 663.5579,157.73811 675.00295,188.65347 Z M 594.02046,139.50152 H 628.87589 Q 624.71403,127.3438 620.20537,115.35975 615.87013,103.20203 611.53489,91.565344 602.51756,115.35975 594.02046,139.50152 Z" id="path7848" style="fill:#ff4c96"/>
  <path d="M 731.41752,148.32826 V 188.65332 H 704.67051 V 148.32826 L 658.12382,64.470982 H 688.51812 L 718.39138,125.6807 748.43836,64.470982 H 778.13791 Z" id="path7850" style="fill:#ff4c96"/>
  <path d="M 789.86187,64.470982 H 875.14842 V 86.702254 H 816.60888 V 113.62294 H 868.54852 V 135.8542 H 816.60888 V 166.4222 H 878.44839 V 188.65347 H 789.86187 Z" id="path7852" style="fill:#ff4c96"/>
  <path d="M 922.20345,143.4962 V 188.65347 H 895.80382 V 64.470982 H 941.13476 Q 965.62392,64.470982 978.65004,74.71821 991.84986,84.965435 991.84986,104.07043 991.84986,116.40184 985.94469,125.08593 980.21317,133.77002 969.44489,138.45943 977.26058,150.79084 984.90259,163.29594 992.54458,175.62733 1000.1866,188.65347 H 969.44489 Q 956.9398,165.72747 943.5663,143.4962 942.17687,143.4962 940.96109,143.4962 Z M 922.20345,122.48071 H 939.57163 Q 951.90304,122.48071 958.32927,118.13867 964.7555,113.62294 964.7555,104.07043 964.7555,94.517937 958.32927,90.00221 952.07671,85.486482 939.74532,85.486482 H 922.20345 Z" id="path7854" style="fill:#ff4c96"/>
</svg>