<?xml version="1.0" encoding="UTF-8" standalone="no"?>
<!-- Created with Inkscape (http://www.inkscape.org/) -->

<svg
   xmlns:dc="http://purl.org/dc/elements/1.1/"
   xmlns:cc="http://creativecommons.org/ns#"
   xmlns:rdf="http://www.w3.org/1999/02/22-rdf-syntax-ns#"
   xmlns:svg="http://www.w3.org/2000/svg"
   xmlns="http://www.w3.org/2000/svg"
   xmlns:sodipodi="http://sodipodi.sourceforge.net/DTD/sodipodi-0.dtd"
   xmlns:inkscape="http://www.inkscape.org/namespaces/inkscape"
   width="210.9377"
   height="49.79398"
   viewBox="0 0 55.810599 13.174657"
   version="1.1"
   id="svg36"
   inkscape:version="0.92.0 r15299"
   sodipodi:docname="now tv.svg">
  <defs
     id="defs30" />
  <sodipodi:namedview
     id="base"
     pagecolor="#ffffff"
     bordercolor="#666666"
     borderopacity="1.0"
     inkscape:pageopacity="0.0"
     inkscape:pageshadow="2"
     inkscape:zoom="4.2931456"
     inkscape:cx="104.46885"
     inkscape:cy="23.896988"
     inkscape:document-units="mm"
     inkscape:current-layer="layer1"
     showgrid="false"
     fit-margin-top="0"
     fit-margin-left="0"
     fit-margin-right="0"
     fit-margin-bottom="0"
     units="px"
     inkscape:window-width="1280"
     inkscape:window-height="744"
     inkscape:window-x="-4"
     inkscape:window-y="-4"
     inkscape:window-maximized="1" />
  <metadata
     id="metadata33">
    <rdf:RDF>
      <cc:Work
         rdf:about="">
        <dc:format>image/svg+xml</dc:format>
        <dc:type
           rdf:resource="http://purl.org/dc/dcmitype/StillImage" />
        <dc:title></dc:title>
      </cc:Work>
    </rdf:RDF>
  </metadata>
  <g
     inkscape:label="Layer 1"
     inkscape:groupmode="layer"
     id="layer1"
     transform="translate(-29.811664,-83.017126)">
    <path
       id="path10"
       d="m 85.311596,83.822519 c -0.059,-0.13679 -0.168281,-0.24263 -0.306922,-0.29713 -0.0656,-0.0265 -0.134409,-0.0389 -0.204259,-0.0389 -0.230981,0 -0.434969,0.13864 -0.519641,0.35321 l -1.451769,3.68036 -1.45256,-3.68036 c -5.29e-4,-0.003 -0.0021,-0.004 -0.003,-0.007 -0.0021,-0.005 -0.005,-0.009 -0.006,-0.0132 -0.005,-0.0124 -0.01061,-0.0249 -0.01691,-0.037 l -0.004,-0.007 c -0.0794,-0.14446 -0.215371,-0.24527 -0.375179,-0.27781 l -0.003,-5.3e-4 c -0.01669,-0.003 -0.0331,-0.005 -0.0492,-0.008 -0.003,0 -0.005,0 -0.008,-7.9e-4 -0.0177,-0.002 -0.036,-0.003 -0.0545,-0.003 h -4.812242 c -0.30798,0 -0.558271,0.2503 -0.558271,0.55827 0,0.30798 0.250291,0.55827 0.558271,0.55827 h 1.580362 v 4.43786 c 0,0.30824 0.250557,0.55827 0.558268,0.55827 0.30771,0 0.557741,-0.25003 0.557741,-0.55827 v -4.43759 h 1.736188 l 1.831711,4.64344 c 0.003,0.005 0.005,0.0106 0.007,0.0159 7.94e-4,7.94e-4 7.94e-4,0.002 7.94e-4,0.003 0.0741,0.17013 0.22489,0.28893 0.403489,0.32359 l 0.008,0.002 c 0.0127,0.003 0.0265,0.005 0.0397,0.006 0.003,0 0.007,5.29e-4 0.0114,0.001 0.0159,0.002 0.0317,0.003 0.0476,0.003 h 0.0011 c 0.01669,0 0.0333,-0.001 0.0492,-0.003 l 0.01111,-0.001 c 0.014,-0.002 0.027,-0.004 0.0397,-0.005 l 0.008,-0.003 c 0.177271,-0.0344 0.328081,-0.15346 0.402159,-0.32359 0.0011,-0.001 0.0011,-0.002 0.0021,-0.003 0.003,-0.005 0.005,-0.0106 0.007,-0.0159 l 1.971169,-4.99693 c 0.055,-0.1389 0.0524,-0.29024 -0.007,-0.4273 m -44.060921,-0.29766 c -1.01547,-0.20638 -2.00819,0.44846 -2.21562,1.46446 l -0.80698,3.955 -2.96624,-4.59767 -0.006,-0.008 c -0.0222,-0.0344 -0.0468,-0.0672 -0.0714,-0.0997 -0.0132,-0.0175 -0.0249,-0.0357 -0.0384,-0.0524 -0.0246,-0.0299 -0.0508,-0.0582 -0.0767,-0.0865 -0.0429,-0.046 -0.0873,-0.09 -0.13282,-0.13229 -0.0159,-0.0132 -0.0299,-0.0283 -0.046,-0.0423 -0.0246,-0.0212 -0.0519,-0.0397 -0.0781,-0.0595 -0.0238,-0.0169 -0.045,-0.0354 -0.0693,-0.0516 -0.0204,-0.0143 -0.0429,-0.027 -0.0648,-0.0402 -0.0307,-0.019 -0.0603,-0.0386 -0.0921,-0.0561 -0.01,-0.005 -0.0201,-0.01 -0.0299,-0.0148 -0.0669,-0.0352 -0.13759,-0.0656 -0.20982,-0.0931 -0.0318,-0.0122 -0.0635,-0.0249 -0.096,-0.0357 -0.0212,-0.006 -0.0434,-0.0111 -0.0651,-0.0167 -0.0381,-0.0106 -0.0773,-0.0217 -0.11641,-0.0296 -0.003,-7.9e-4 -0.006,-0.002 -0.01,-0.003 -0.0206,-0.004 -0.0413,-0.006 -0.0622,-0.0101 -0.037,-0.006 -0.0741,-0.0127 -0.11166,-0.0167 -0.0275,-0.003 -0.0548,-0.004 -0.0825,-0.005 -0.0339,-0.003 -0.0675,-0.005 -0.1016,-0.005 -0.0286,0 -0.0569,0.001 -0.0847,0.002 -0.0333,0.001 -0.0661,0.003 -0.0995,0.005 -0.0278,0.003 -0.0545,0.006 -0.0815,0.0106 -0.0339,0.004 -0.0677,0.008 -0.1016,0.0151 -0.0254,0.005 -0.0503,0.0106 -0.0749,0.0159 -0.0352,0.008 -0.0704,0.0167 -0.105039,0.0264 -0.0238,0.007 -0.046,0.0159 -0.0688,0.0238 -0.0352,0.0116 -0.0699,0.0233 -0.10451,0.037 -0.0238,0.01 -0.046,0.0204 -0.0688,0.0317 -0.0333,0.0143 -0.0656,0.0286 -0.0971,0.045 -0.0257,0.0138 -0.0503,0.0291 -0.0759,0.0442 -0.0238,0.014 -0.0497,0.0265 -0.0733,0.0418 -0.004,0.002 -0.007,0.005 -0.0106,0.008 -0.0251,0.0159 -0.0487,0.0344 -0.0725,0.0519 -0.0265,0.0193 -0.054,0.037 -0.0794,0.0577 -0.007,0.007 -0.0145,0.0138 -0.0225,0.0201 -0.12118,0.10054 -0.22648,0.21431 -0.31565,0.33787 -0.0106,0.0146 -0.0212,0.0278 -0.0318,0.0423 -0.0185,0.0275 -0.0352,0.0566 -0.0521,0.0852 -0.0151,0.0238 -0.031,0.0476 -0.045,0.0722 -0.0114,0.0212 -0.0204,0.0434 -0.031,0.0646 -0.027,0.0545 -0.0521,0.11033 -0.0741,0.16775 -0.0132,0.0344 -0.0265,0.0688 -0.0381,0.10319 -0.006,0.0212 -0.0106,0.0423 -0.0164,0.0627 -0.0106,0.0402 -0.0228,0.0799 -0.0307,0.11959 -5.29e-4,0.004 -0.002,0.006 -0.003,0.01 l -1.72773,8.46693 c -0.2069,1.016 0.44821,2.00819 1.46473,2.21563 0.12648,0.0257 0.25295,0.0386 0.3773,0.0386 0.87365,0 1.65682,-0.61384 1.83833,-1.50337 l 0.80697,-3.95446 2.96598,4.59714 c 0.002,0.003 0.003,0.005 0.005,0.007 0.0397,0.0608 0.0825,0.118 0.12886,0.17409 0.0138,0.0164 0.0286,0.0317 0.0423,0.0476 0.0344,0.0384 0.0701,0.0754 0.10768,0.11113 0.0172,0.0169 0.0355,0.0339 0.0534,0.0503 0.0402,0.0354 0.0828,0.0693 0.127,0.10107 0.0132,0.0106 0.0265,0.0212 0.0397,0.031 0.0577,0.0408 0.118,0.0775 0.18124,0.11192 0.0127,0.006 0.0265,0.0124 0.0389,0.0185 0.0503,0.0257 0.10134,0.0495 0.15425,0.0714 0.022,0.008 0.0434,0.0159 0.0656,0.0233 0.045,0.0164 0.0907,0.0304 0.13758,0.0437 0.0249,0.006 0.0495,0.0138 0.0746,0.0193 0.0151,0.003 0.0302,0.009 0.0458,0.0116 0.0325,0.006 0.0656,0.01 0.0979,0.0153 0.0225,0.003 0.045,0.007 0.0672,0.01 0.0714,0.008 0.14208,0.014 0.2122,0.014 0.005,0 0.0116,-0.001 0.0172,-0.001 0.0431,0 0.0868,-0.003 0.12965,-0.006 0.018,-0.002 0.0352,-0.005 0.0524,-0.006 0.0325,-0.004 0.0648,-0.007 0.0963,-0.0122 l 0.0548,-0.01 c 0.0317,-0.006 0.0643,-0.0132 0.0963,-0.0212 0.0159,-0.004 0.0318,-0.008 0.0482,-0.0122 0.037,-0.0106 0.0741,-0.022 0.11006,-0.0344 l 0.0312,-0.01 c 0.0468,-0.0175 0.0942,-0.0365 0.14023,-0.0577 h 10e-4 c 0.0437,-0.0212 0.0873,-0.0431 0.13018,-0.0672 0.0143,-0.008 0.0283,-0.0169 0.0429,-0.0254 0.0217,-0.0127 0.0434,-0.0249 0.0646,-0.0386 0.005,-0.003 0.0106,-0.007 0.0159,-0.0106 0.0389,-0.0265 0.0767,-0.054 0.1143,-0.082 0.01,-0.008 0.0204,-0.0151 0.0299,-0.0228 0.0442,-0.0357 0.0868,-0.0741 0.12779,-0.11377 0.0159,-0.0151 0.0296,-0.031 0.0445,-0.046 0.0257,-0.0265 0.0503,-0.0529 0.0749,-0.0804 0.0159,-0.0185 0.0296,-0.037 0.045,-0.0556 0.0212,-0.0275 0.0418,-0.0548 0.0622,-0.0825 0.0132,-0.0196 0.0265,-0.0386 0.0392,-0.0582 0.0193,-0.0291 0.0376,-0.0598 0.0556,-0.0907 0.0106,-0.0191 0.0217,-0.0381 0.0323,-0.0577 0.0164,-0.0325 0.0331,-0.0661 0.0481,-0.0998 l 0.0254,-0.0574 c 0.0143,-0.0344 0.0273,-0.0701 0.0392,-0.10584 0.007,-0.0196 0.0143,-0.0389 0.0204,-0.059 0.0116,-0.0344 0.0204,-0.0709 0.0291,-0.10636 0.005,-0.0206 0.0111,-0.0423 0.0159,-0.0635 5.29e-4,-0.003 0.002,-0.007 0.003,-0.0106 l 1.728779,-8.46719 c 0.20823,-1.016 -0.44714,-2.00819 -1.46367,-2.21563 m 32.029711,0.16591 c -0.963081,-0.4789 -2.131222,-0.0855 -2.609591,0.87762 l -2.07274,4.17512 -1.339588,-3.9362 c -0.006,-0.0185 -0.01429,-0.0355 -0.02119,-0.0534 -0.0132,-0.0357 -0.0272,-0.0714 -0.0423,-0.10663 -0.01111,-0.0259 -0.02381,-0.0503 -0.036,-0.0749 -0.0159,-0.0323 -0.0318,-0.0643 -0.0495,-0.0952 -0.0145,-0.0265 -0.0304,-0.0513 -0.046,-0.0767 -0.01799,-0.0278 -0.036,-0.0556 -0.055,-0.0836 -0.01799,-0.0265 -0.037,-0.0503 -0.0564,-0.0751 -0.01979,-0.0249 -0.0397,-0.0497 -0.0598,-0.0736 -0.02199,-0.0259 -0.0445,-0.0497 -0.0677,-0.0741 -0.0204,-0.0212 -0.0413,-0.0429 -0.063,-0.0635 -0.0259,-0.0246 -0.0521,-0.0476 -0.0794,-0.0714 -0.02119,-0.0177 -0.0423,-0.0365 -0.0635,-0.0537 -0.0304,-0.0233 -0.0619,-0.0455 -0.0937,-0.0672 -0.0159,-0.0114 -0.0302,-0.0228 -0.0458,-0.0336 -0.007,-0.004 -0.0132,-0.007 -0.019,-0.0111 -0.0318,-0.0206 -0.0643,-0.0386 -0.0974,-0.0569 -0.02379,-0.0132 -0.0482,-0.0278 -0.0728,-0.0402 -0.0291,-0.0146 -0.059,-0.0273 -0.0881,-0.0397 -0.0291,-0.0132 -0.0587,-0.0272 -0.0886,-0.0386 -0.0265,-0.01 -0.0529,-0.018 -0.0794,-0.027 -0.0336,-0.0111 -0.0672,-0.0233 -0.100542,-0.0323 -0.0278,-0.008 -0.0561,-0.0132 -0.0839,-0.0198 -0.0331,-0.007 -0.0654,-0.0159 -0.099,-0.0212 -0.0344,-0.006 -0.0706,-0.01 -0.105831,-0.0143 -0.0265,-0.003 -0.0529,-0.007 -0.0794,-0.009 -0.0397,-0.003 -0.082,-0.004 -0.123301,-0.004 -0.02061,-5.3e-4 -0.0418,-0.002 -0.0635,-0.002 -0.0392,7.9e-4 -0.0794,0.005 -0.119851,0.008 -0.02249,0.002 -0.0463,0.003 -0.0688,0.005 -0.0344,0.004 -0.0688,0.0106 -0.102659,0.0164 -0.0299,0.005 -0.0598,0.009 -0.0886,0.0159 -0.0286,0.006 -0.0566,0.0143 -0.0841,0.022 -0.0357,0.009 -0.0714,0.0185 -0.10636,0.0296 -0.007,0.003 -0.0132,0.004 -0.02119,0.006 -0.0177,0.006 -0.0352,0.0148 -0.0529,0.0212 -0.0365,0.0132 -0.0714,0.0275 -0.10663,0.0423 -0.0259,0.0114 -0.0503,0.0238 -0.0749,0.036 -0.0323,0.0159 -0.0646,0.0317 -0.0952,0.0497 -0.0265,0.0148 -0.0503,0.0302 -0.0757,0.0458 -0.0291,0.0185 -0.0569,0.0362 -0.0847,0.0556 -0.0254,0.0177 -0.0503,0.037 -0.0741,0.0556 -0.0259,0.0198 -0.0503,0.0397 -0.0751,0.0609 -0.0249,0.0212 -0.0484,0.0434 -0.0714,0.0661 -0.02249,0.0206 -0.045,0.0418 -0.0662,0.0646 -0.02379,0.0249 -0.0466,0.0503 -0.0696,0.0767 -0.01849,0.0222 -0.0376,0.0437 -0.0556,0.0669 -0.0227,0.0291 -0.0444,0.0595 -0.0653,0.09 -0.01159,0.0164 -0.02461,0.0317 -0.0349,0.0482 l -2.673349,4.09839 -0.473609,-3.09219 c -0.16324,-1.06309 -1.157811,-1.79308 -2.21932,-1.62983 -1.06363,0.16325 -1.792822,1.15702 -1.629831,2.21986 l 1.245389,8.12641 c 0.003,0.0185 0.008,0.0363 0.01061,0.0542 0.006,0.0286 0.01109,0.0574 0.01749,0.0855 0.008,0.0333 0.0159,0.0662 0.0259,0.0992 0.007,0.0249 0.0132,0.0495 0.0217,0.0736 0.01162,0.036 0.0249,0.0704 0.0384,0.10477 0.008,0.0217 0.0164,0.0429 0.02569,0.064 0.0159,0.0362 0.0328,0.0714 0.0503,0.10584 0.01061,0.0193 0.01961,0.0386 0.0299,0.0582 0.019,0.0354 0.0408,0.0688 0.0619,0.10213 0.01111,0.0185 0.02119,0.037 0.0336,0.0537 0.0265,0.0389 0.0548,0.0762 0.0833,0.11271 0.0164,0.0212 0.0339,0.0423 0.0519,0.0622 0.0302,0.0344 0.0609,0.0693 0.0934,0.10213 0.0172,0.0169 0.0357,0.0333 0.0534,0.0503 0.0275,0.0254 0.0548,0.0503 0.0831,0.0741 0.019,0.0159 0.0386,0.0307 0.0582,0.0458 0.0312,0.0233 0.0619,0.046 0.0937,0.0677 0.01,0.006 0.01799,0.0138 0.0278,0.0198 0.01511,0.01 0.0304,0.018 0.0455,0.0275 l 0.0529,0.0318 c 0.031,0.0177 0.0624,0.0344 0.0939,0.0497 0.01511,0.008 0.0299,0.0159 0.046,0.0233 0.0963,0.0455 0.195259,0.082 0.295539,0.11059 0.01511,0.004 0.0302,0.008 0.0455,0.0114 0.037,0.01 0.0728,0.0175 0.108481,0.0254 l 0.0556,0.01 c 0.036,0.006 0.0714,0.0106 0.105831,0.0145 0.01799,0.002 0.0365,0.004 0.0545,0.005 0.0495,0.005 0.099,0.007 0.148169,0.007 h 0.007 c 0.0728,0 0.143669,-0.005 0.214839,-0.0127 0.01511,-0.002 0.031,-0.003 0.0463,-0.005 0.0132,-0.002 0.0265,-0.003 0.0386,-0.005 0.0444,-0.007 0.0873,-0.0169 0.130172,-0.027 0.01749,-0.004 0.0354,-0.006 0.0524,-0.0106 0.0733,-0.0185 0.14341,-0.0405 0.211672,-0.0661 0.0122,-0.005 0.02331,-0.0101 0.0344,-0.0154 0.0569,-0.0225 0.11218,-0.0476 0.16669,-0.0746 0.02011,-0.0106 0.0397,-0.0222 0.0603,-0.0331 0.0442,-0.0254 0.0878,-0.0521 0.129638,-0.0807 0.02119,-0.0138 0.0423,-0.0275 0.0627,-0.0423 0.045,-0.0325 0.0881,-0.0677 0.129651,-0.10424 0.014,-0.0114 0.0291,-0.0228 0.0423,-0.0352 0.0534,-0.0489 0.10319,-0.10134 0.151339,-0.15611 0.0132,-0.0159 0.0272,-0.0331 0.0405,-0.0503 0.0354,-0.0429 0.0693,-0.0873 0.100541,-0.13441 0.008,-0.0111 0.0159,-0.0201 0.02381,-0.0318 l 3.27211,-5.01438 1.556279,4.57147 v 5.3e-4 l 0.0021,0.006 c 0.01849,0.0545 0.0397,0.10742 0.0624,0.15875 0.006,0.0143 0.01381,0.027 0.01979,0.0408 0.01799,0.0397 0.0384,0.0788 0.0582,0.11695 l 0.0291,0.0476 c 0.02011,0.0355 0.0415,0.0696 0.0646,0.10266 0.01011,0.0159 0.02119,0.0318 0.0328,0.0476 0.02429,0.0339 0.0503,0.0669 0.0767,0.0987 0.01061,0.0132 0.02119,0.0265 0.0323,0.0384 0.037,0.0434 0.0767,0.0852 0.117211,0.12435 0.009,0.009 0.01849,0.0167 0.0275,0.0251 0.0339,0.031 0.0677,0.0609 0.103981,0.09 0.0159,0.0124 0.0325,0.0249 0.0492,0.037 0.0325,0.0246 0.0656,0.0476 0.0992,0.0701 0.0159,0.0106 0.0318,0.0212 0.0487,0.0317 0.0503,0.0304 0.101862,0.0603 0.154522,0.0863 l 5.29e-4,5.29e-4 0.003,0.001 c 0.0595,0.0291 0.120909,0.0556 0.18388,0.0786 0.0159,0.005 0.0325,0.0119 0.0492,0.0175 0.0609,0.0212 0.122769,0.0397 0.18574,0.0548 0.009,0.002 0.019,0.003 0.0291,0.005 0.0545,0.0124 0.110591,0.022 0.16669,0.0291 l 0.0537,0.006 c 0.0646,0.007 0.129641,0.0106 0.194731,0.0106 l 0.02011,-5.29e-4 c 0.041,0 0.0825,-0.002 0.123029,-0.005 0.0196,-7.93e-4 0.0384,-0.004 0.0572,-0.005 0.0299,-0.003 0.0603,-0.007 0.09,-0.0114 0.01979,-0.003 0.0397,-0.006 0.0593,-0.01 0.0304,-0.005 0.0609,-0.0124 0.09,-0.0185 0.01849,-0.005 0.0376,-0.009 0.0556,-0.014 0.0339,-0.009 0.0677,-0.0185 0.101068,-0.0296 0.01061,-0.003 0.0217,-0.005 0.0317,-0.009 l 0.009,-0.004 c 0.055,-0.0185 0.108479,-0.0402 0.16193,-0.064 0.0132,-0.005 0.0259,-0.0124 0.0397,-0.0185 0.0397,-0.0196 0.0812,-0.0405 0.12065,-0.0635 0.0132,-0.007 0.0259,-0.0143 0.0386,-0.0212 0.0476,-0.0286 0.0937,-0.0587 0.138639,-0.0913 0.0114,-0.008 0.02281,-0.0169 0.0339,-0.0254 0.0357,-0.0272 0.0701,-0.0556 0.103978,-0.0841 l 0.0344,-0.0296 c 0.0828,-0.0759 0.16034,-0.15928 0.230719,-0.25056 l 0.02511,-0.0336 c 0.027,-0.036 0.0519,-0.073 0.0767,-0.11166 0.007,-0.0114 0.01479,-0.0227 0.02199,-0.0344 0.028,-0.0476 0.0556,-0.0953 0.0804,-0.14552 l 4.1524,-8.36329 c 0.478901,-0.96309 0.0855,-2.13202 -0.87788,-2.61012 m -23.645136,-0.40666 c -3.49145,0 -6.32275,2.83104 -6.32275,6.32301 0,3.49118 2.83104,6.32248 6.32248,6.32248 3.49197,0 6.32275,-2.83104 6.32275,-6.32248 2.6e-4,-3.4925 -2.82998,-6.32301 -6.32248,-6.32301"
       inkscape:connector-curvature="0"
       style="fill:#223153;fill-opacity:1;stroke-width:0.26458332" />
  </g>
</svg>
